<svg id="visual" viewBox="0 0 1600 1000" width="1600" height="1000" xmlns="http://www.w3.org/2000/svg" xmlns:xlink="http://www.w3.org/1999/xlink" version="1.1"><rect width="1600" height="1000" fill="#001829"></rect><g><g transform="translate(710 658)"><path d="M0 -152.8L132.4 -76.4L132.4 76.4L0 152.8L-132.4 76.4L-132.4 -76.4Z" fill="none" stroke="#297EA6" stroke-width="2"></path></g><g transform="translate(1273 125)"><path d="M0 -126L109.1 -63L109.1 63L0 126L-109.1 63L-109.1 -63Z" fill="none" stroke="#297EA6" stroke-width="2"></path></g><g transform="translate(34 942)"><path d="M0 -111L96.1 -55.5L96.1 55.5L0 111L-96.1 55.5L-96.1 -55.5Z" fill="none" stroke="#297EA6" stroke-width="2"></path></g><g transform="translate(20 287)"><path d="M0 -111L96.1 -55.5L96.1 55.5L0 111L-96.1 55.5L-96.1 -55.5Z" fill="none" stroke="#297EA6" stroke-width="2"></path></g><g transform="translate(1161 603)"><path d="M0 -120L103.9 -60L103.9 60L0 120L-103.9 60L-103.9 -60Z" fill="none" stroke="#297EA6" stroke-width="2"></path></g><g transform="translate(1543 465)"><path d="M0 -101L87.5 -50.5L87.5 50.5L0 101L-87.5 50.5L-87.5 -50.5Z" fill="none" stroke="#297EA6" stroke-width="2"></path></g><g transform="translate(399 963)"><path d="M0 -105L90.9 -52.5L90.9 52.5L0 105L-90.9 52.5L-90.9 -52.5Z" fill="none" stroke="#297EA6" stroke-width="2"></path></g><g transform="translate(689 294)"><path d="M0 -105L90.9 -52.5L90.9 52.5L0 105L-90.9 52.5L-90.9 -52.5Z" fill="none" stroke="#297EA6" stroke-width="2"></path></g><g transform="translate(1577 9)"><path d="M0 -96L83.1 -48L83.1 48L0 96L-83.1 48L-83.1 -48Z" fill="none" stroke="#297EA6" stroke-width="2"></path></g><g transform="translate(1545 918)"><path d="M0 -97L84 -48.5L84 48.5L0 97L-84 48.5L-84 -48.5Z" fill="none" stroke="#297EA6" stroke-width="2"></path></g><g transform="translate(748 979)"><path d="M0 -107L92.7 -53.5L92.7 53.5L0 107L-92.7 53.5L-92.7 -53.5Z" fill="none" stroke="#297EA6" stroke-width="2"></path></g><g transform="translate(343 568)"><path d="M0 -99L85.7 -49.5L85.7 49.5L0 99L-85.7 49.5L-85.7 -49.5Z" fill="none" stroke="#297EA6" stroke-width="2"></path></g></g></svg>